<svg width="676" height="772" viewBox="0 0 676 772" fill="none" xmlns="http://www.w3.org/2000/svg">
<path d="M70.1295 175.786C33.673 113.702 54.9393 -12.5124 70.1295 -67.8588L683.302 -159L741.506 85.9983L706.764 628.333C635.776 629.236 477.467 622.468 412.135 588.177C330.468 545.314 367.466 476.281 299.787 440.186C232.108 404.09 270.911 308.888 247.449 272.793C223.987 236.697 115.7 253.391 70.1295 175.786Z" fill="#28489B"/>
<ellipse cx="361.884" cy="71.6552" rx="17.3999" ry="17.6093" transform="rotate(-22.9221 361.884 71.6552)" fill="white" fill-opacity="0.1"/>
<ellipse cx="389.378" cy="136.667" rx="17.3999" ry="17.6093" transform="rotate(-22.9221 389.378 136.667)" fill="white" fill-opacity="0.1"/>
<ellipse cx="416.869" cy="201.68" rx="17.3999" ry="17.6093" transform="rotate(-22.9221 416.869 201.68)" fill="white" fill-opacity="0.1"/>
<ellipse cx="444.36" cy="266.69" rx="17.3999" ry="17.6093" transform="rotate(-22.9221 444.36 266.69)" fill="white" fill-opacity="0.1"/>
<ellipse cx="471.852" cy="331.703" rx="17.3999" ry="17.6093" transform="rotate(-22.9221 471.852 331.703)" fill="white" fill-opacity="0.1"/>
<ellipse cx="499.342" cy="396.715" rx="17.3999" ry="17.6093" transform="rotate(-22.9221 499.342 396.715)" fill="white" fill-opacity="0.1"/>
<ellipse cx="426.125" cy="44.4897" rx="17.3999" ry="17.6093" transform="rotate(-22.9221 426.125 44.4897)" fill="white" fill-opacity="0.1"/>
<ellipse cx="453.617" cy="109.502" rx="17.3999" ry="17.6093" transform="rotate(-22.9221 453.617 109.502)" fill="white" fill-opacity="0.1"/>
<ellipse cx="481.108" cy="174.514" rx="17.3999" ry="17.6093" transform="rotate(-22.9221 481.108 174.514)" fill="white" fill-opacity="0.1"/>
<ellipse cx="508.6" cy="239.525" rx="17.3999" ry="17.6093" transform="rotate(-22.9221 508.6 239.525)" fill="white" fill-opacity="0.1"/>
<ellipse cx="536.091" cy="304.538" rx="17.3999" ry="17.6093" transform="rotate(-22.9221 536.091 304.538)" fill="white" fill-opacity="0.1"/>
<ellipse cx="563.584" cy="369.55" rx="17.3999" ry="17.6093" transform="rotate(-22.9221 563.584 369.55)" fill="white" fill-opacity="0.1"/>
<ellipse cx="490.365" cy="17.3247" rx="17.3999" ry="17.6093" transform="rotate(-22.9221 490.365 17.3247)" fill="white" fill-opacity="0.1"/>
<ellipse cx="517.855" cy="82.3364" rx="17.3999" ry="17.6093" transform="rotate(-22.9221 517.855 82.3364)" fill="white" fill-opacity="0.1"/>
<ellipse cx="545.347" cy="147.35" rx="17.3999" ry="17.6093" transform="rotate(-22.9221 545.347 147.35)" fill="white" fill-opacity="0.1"/>
<ellipse cx="572.839" cy="212.361" rx="17.3999" ry="17.6093" transform="rotate(-22.9221 572.839 212.361)" fill="white" fill-opacity="0.1"/>
<ellipse cx="600.331" cy="277.373" rx="17.3999" ry="17.6093" transform="rotate(-22.9221 600.331 277.373)" fill="white" fill-opacity="0.1"/>
<ellipse cx="627.823" cy="342.385" rx="17.3999" ry="17.6093" transform="rotate(-22.9221 627.823 342.385)" fill="white" fill-opacity="0.1"/>
<ellipse cx="554.603" cy="-9.8389" rx="17.3999" ry="17.6093" transform="rotate(-22.9221 554.603 -9.8389)" fill="white" fill-opacity="0.1"/>
<ellipse cx="582.095" cy="55.1728" rx="17.3999" ry="17.6093" transform="rotate(-22.9221 582.095 55.1728)" fill="white" fill-opacity="0.1"/>
<ellipse cx="609.587" cy="120.186" rx="17.3999" ry="17.6093" transform="rotate(-22.9221 609.587 120.186)" fill="white" fill-opacity="0.1"/>
<ellipse cx="637.078" cy="185.196" rx="17.3999" ry="17.6093" transform="rotate(-22.9221 637.078 185.196)" fill="white" fill-opacity="0.1"/>
<ellipse cx="664.57" cy="250.209" rx="17.3999" ry="17.6093" transform="rotate(-22.9221 664.57 250.209)" fill="white" fill-opacity="0.1"/>
<ellipse cx="692.06" cy="315.22" rx="17.3999" ry="17.6093" transform="rotate(-22.9221 692.06 315.22)" fill="white" fill-opacity="0.1"/>
<ellipse cx="646.334" cy="28.0083" rx="17.3999" ry="17.6093" transform="rotate(-22.9221 646.334 28.0083)" fill="white" fill-opacity="0.1"/>
<ellipse cx="673.825" cy="93.0205" rx="17.3999" ry="17.6093" transform="rotate(-22.9221 673.825 93.0205)" fill="white" fill-opacity="0.1"/>
<ellipse cx="22.8844" cy="-13.3448" rx="17.3999" ry="17.6093" transform="rotate(-22.9221 22.8844 -13.3448)" fill="white" fill-opacity="0.1"/>
<ellipse cx="50.3776" cy="51.667" rx="17.3999" ry="17.6093" transform="rotate(-22.9221 50.3776 51.667)" fill="white" fill-opacity="0.1"/>
<ellipse cx="77.8688" cy="116.68" rx="17.3999" ry="17.6093" transform="rotate(-22.9221 77.8688 116.68)" fill="white" fill-opacity="0.1"/>
<ellipse cx="105.36" cy="181.69" rx="17.3999" ry="17.6093" transform="rotate(-22.9221 105.36 181.69)" fill="white" fill-opacity="0.1"/>
<ellipse cx="132.852" cy="246.703" rx="17.3999" ry="17.6093" transform="rotate(-22.9221 132.852 246.703)" fill="white" fill-opacity="0.1"/>
<ellipse cx="160.342" cy="311.715" rx="17.3999" ry="17.6093" transform="rotate(-22.9221 160.342 311.715)" fill="white" fill-opacity="0.1"/>
<ellipse cx="114.617" cy="24.5019" rx="17.3999" ry="17.6093" transform="rotate(-22.9221 114.617 24.5019)" fill="white" fill-opacity="0.1"/>
<ellipse cx="142.108" cy="89.5136" rx="17.3999" ry="17.6093" transform="rotate(-22.9221 142.108 89.5136)" fill="white" fill-opacity="0.1"/>
<ellipse cx="169.6" cy="154.525" rx="17.3999" ry="17.6093" transform="rotate(-22.9221 169.6 154.525)" fill="white" fill-opacity="0.1"/>
<ellipse cx="197.091" cy="219.538" rx="17.3999" ry="17.6093" transform="rotate(-22.9221 197.091 219.538)" fill="white" fill-opacity="0.1"/>
<ellipse cx="224.584" cy="284.55" rx="17.3999" ry="17.6093" transform="rotate(-22.9221 224.584 284.55)" fill="white" fill-opacity="0.1"/>
<ellipse cx="178.855" cy="-2.66361" rx="17.3999" ry="17.6093" transform="rotate(-22.9221 178.855 -2.66361)" fill="white" fill-opacity="0.1"/>
<ellipse cx="206.347" cy="62.3496" rx="17.3999" ry="17.6093" transform="rotate(-22.9221 206.347 62.3496)" fill="white" fill-opacity="0.1"/>
<ellipse cx="233.839" cy="127.361" rx="17.3999" ry="17.6093" transform="rotate(-22.9221 233.839 127.361)" fill="white" fill-opacity="0.1"/>
<ellipse cx="261.331" cy="192.373" rx="17.3999" ry="17.6093" transform="rotate(-22.9221 261.331 192.373)" fill="white" fill-opacity="0.1"/>
<ellipse cx="288.823" cy="257.385" rx="17.3999" ry="17.6093" transform="rotate(-22.9221 288.823 257.385)" fill="white" fill-opacity="0.1"/>
<ellipse cx="270.587" cy="35.1855" rx="17.3999" ry="17.6093" transform="rotate(-22.9221 270.587 35.1855)" fill="white" fill-opacity="0.1"/>
<ellipse cx="298.078" cy="100.196" rx="17.3999" ry="17.6093" transform="rotate(-22.9221 298.078 100.196)" fill="white" fill-opacity="0.1"/>
<ellipse cx="325.57" cy="165.209" rx="17.3999" ry="17.6093" transform="rotate(-22.9221 325.57 165.209)" fill="white" fill-opacity="0.1"/>
<ellipse cx="353.06" cy="230.22" rx="17.3999" ry="17.6093" transform="rotate(-22.9221 353.06 230.22)" fill="white" fill-opacity="0.1"/>
<ellipse cx="334.825" cy="8.02047" rx="17.3999" ry="17.6093" transform="rotate(-22.9221 334.825 8.02047)" fill="white" fill-opacity="0.1"/>
<ellipse cx="362.316" cy="73.0317" rx="17.3999" ry="17.6093" transform="rotate(-22.9221 362.316 73.0317)" fill="white" fill-opacity="0.1"/>
<ellipse cx="389.808" cy="138.044" rx="17.3999" ry="17.6093" transform="rotate(-22.9221 389.808 138.044)" fill="white" fill-opacity="0.1"/>
<ellipse cx="417.3" cy="203.056" rx="17.3999" ry="17.6093" transform="rotate(-22.9221 417.3 203.056)" fill="white" fill-opacity="0.1"/>
<ellipse cx="431.884" cy="423.655" rx="17.3999" ry="17.6093" transform="rotate(-22.9221 431.884 423.655)" fill="white" fill-opacity="0.1"/>
<ellipse cx="459.378" cy="488.667" rx="17.3999" ry="17.6093" transform="rotate(-22.9221 459.378 488.667)" fill="white" fill-opacity="0.1"/>
<ellipse cx="486.869" cy="553.68" rx="17.3999" ry="17.6093" transform="rotate(-22.9221 486.869 553.68)" fill="white" fill-opacity="0.1"/>
<ellipse cx="514.36" cy="618.69" rx="17.3999" ry="17.6093" transform="rotate(-22.9221 514.36 618.69)" fill="white" fill-opacity="0.1"/>
<ellipse cx="541.852" cy="683.703" rx="17.3999" ry="17.6093" transform="rotate(-22.9221 541.852 683.703)" fill="white" fill-opacity="0.1"/>
<ellipse cx="569.342" cy="748.715" rx="17.3999" ry="17.6093" transform="rotate(-22.9221 569.342 748.715)" fill="white" fill-opacity="0.1"/>
<ellipse cx="496.125" cy="396.49" rx="17.3999" ry="17.6093" transform="rotate(-22.9221 496.125 396.49)" fill="white" fill-opacity="0.1"/>
<ellipse cx="523.617" cy="461.502" rx="17.3999" ry="17.6093" transform="rotate(-22.9221 523.617 461.502)" fill="white" fill-opacity="0.1"/>
<ellipse cx="551.108" cy="526.514" rx="17.3999" ry="17.6093" transform="rotate(-22.9221 551.108 526.514)" fill="white" fill-opacity="0.1"/>
<ellipse cx="578.6" cy="591.525" rx="17.3999" ry="17.6093" transform="rotate(-22.9221 578.6 591.525)" fill="white" fill-opacity="0.1"/>
<ellipse cx="606.091" cy="656.538" rx="17.3999" ry="17.6093" transform="rotate(-22.9221 606.091 656.538)" fill="white" fill-opacity="0.1"/>
<ellipse cx="633.584" cy="721.55" rx="17.3999" ry="17.6093" transform="rotate(-22.9221 633.584 721.55)" fill="white" fill-opacity="0.1"/>
<ellipse cx="560.365" cy="369.325" rx="17.3999" ry="17.6093" transform="rotate(-22.9221 560.365 369.325)" fill="white" fill-opacity="0.1"/>
<ellipse cx="587.855" cy="434.336" rx="17.3999" ry="17.6093" transform="rotate(-22.9221 587.855 434.336)" fill="white" fill-opacity="0.1"/>
<ellipse cx="615.347" cy="499.35" rx="17.3999" ry="17.6093" transform="rotate(-22.9221 615.347 499.35)" fill="white" fill-opacity="0.1"/>
<ellipse cx="642.839" cy="564.361" rx="17.3999" ry="17.6093" transform="rotate(-22.9221 642.839 564.361)" fill="white" fill-opacity="0.1"/>
<ellipse cx="670.331" cy="629.372" rx="17.3999" ry="17.6093" transform="rotate(-22.9221 670.331 629.372)" fill="white" fill-opacity="0.1"/>
<ellipse cx="697.823" cy="694.385" rx="17.3999" ry="17.6093" transform="rotate(-22.9221 697.823 694.385)" fill="white" fill-opacity="0.1"/>
<ellipse cx="624.603" cy="342.161" rx="17.3999" ry="17.6093" transform="rotate(-22.9221 624.603 342.161)" fill="white" fill-opacity="0.1"/>
<ellipse cx="652.095" cy="407.173" rx="17.3999" ry="17.6093" transform="rotate(-22.9221 652.095 407.173)" fill="white" fill-opacity="0.1"/>
<ellipse cx="679.587" cy="472.186" rx="17.3999" ry="17.6093" transform="rotate(-22.9221 679.587 472.186)" fill="white" fill-opacity="0.1"/>
<ellipse cx="688.841" cy="314.996" rx="17.3999" ry="17.6093" transform="rotate(-22.9221 688.841 314.996)" fill="white" fill-opacity="0.1"/>
</svg>
