<svg width="555" height="534" viewBox="0 0 555 534" fill="none" xmlns="http://www.w3.org/2000/svg">
<g clip-path="url(#clip0_5291_1169)">
<path fill-rule="evenodd" clip-rule="evenodd" d="M138.643 296.868C141.772 326.052 144.923 355.237 148.097 384.421L150.626 407.949C150.959 410.9 150.626 416.803 151.891 419.426C152.358 420.328 153.489 420.82 154.288 421.393C157.151 423.279 160.08 425.246 162.943 427.132C187.311 443.282 211.7 459.404 236.112 475.499C259.547 490.993 282.96 506.46 306.351 521.899C308.747 523.539 312.676 527.638 315.272 526.572C317.735 525.506 320.265 522.965 322.529 521.325L335.512 511.98C361.743 493.043 387.952 474.133 414.139 455.251C424.925 447.463 435.777 439.675 446.562 431.805C449.492 429.673 452.488 427.542 455.417 425.41C456.948 424.263 457.148 424.345 457.747 422.459C460.011 415.409 461.076 407.293 462.674 399.915C464.472 391.799 466.203 383.683 468 375.649C468.799 372.042 468.4 371.55 467.135 368.107C464.605 361.221 462.008 354.253 459.478 347.367C453.819 332.037 448.138 316.707 442.435 301.377C440.171 295.146 434.645 290.802 430.65 286.293L368.867 215.463C367.269 213.66 365.738 211.856 364.14 210.053C363.873 220.874 362.142 232.515 364.672 242.926C368.867 260.06 372.995 277.193 377.189 294.327C379.186 302.606 381.25 310.886 383.247 319.166C383.647 320.724 385.911 326.79 385.311 328.184C384.978 328.922 382.116 329.659 381.45 329.987C378.787 331.217 376.057 332.529 373.394 333.758C365.937 337.283 358.414 340.727 350.957 344.252C344.233 347.367 337.509 350.564 330.785 353.679C328.521 354.745 325.858 356.712 323.394 356.548C321.264 356.384 318.801 355.073 316.737 354.417C313.075 353.269 309.413 352.122 305.752 350.892L284.18 344.006C276.058 341.464 269.267 333.922 262.343 328.348C250.426 318.756 238.531 309.164 226.658 299.573C223.928 297.36 223.928 296.13 222.863 292.113C220.399 283.096 218.003 274.078 215.539 265.06C214.208 260.224 212.61 255.387 211.678 250.468C210.08 242.352 209.081 233.908 207.816 225.711C207.417 223.251 207.017 220.71 206.685 218.251C201.691 220.71 196.698 223.251 191.705 225.711C190.972 226.039 187.444 227.186 187.177 228.006C186.978 228.58 188.043 231.121 188.176 231.613L200.559 276.865C201.891 281.62 203.156 286.375 204.487 291.13C201.358 285.145 198.296 279.079 195.167 273.094C192.703 283.178 190.307 293.343 187.843 303.426C182.051 295.228 176.325 287.031 170.533 278.833L164.541 303.426C158.349 293.343 152.091 283.178 145.9 273.094C145.167 278.341 144.435 283.669 143.702 288.916C143.503 290.474 143.503 295.064 142.637 296.376C141.971 297.36 139.974 296.868 138.643 296.868Z" fill="#28489B"/>
<path fill-rule="evenodd" clip-rule="evenodd" d="M532.048 359.91C531.715 373.682 531.915 391.471 525.856 403.522C524.857 405.49 521.528 411.556 521.129 406.227C520.796 400.981 521.795 395.816 520.796 390.488C520.263 387.618 518.399 381.47 515.204 384.011C513.606 385.323 513.14 388.52 512.541 390.57C511.608 393.603 510.543 396.554 509.545 399.505C506.083 409.917 502.487 422.377 494.831 429.263C495.83 420.246 498.559 410.654 496.762 401.555C496.163 398.44 494.232 392.783 490.97 394.587C487.774 396.39 485.71 404.26 484.179 407.785C479.585 418.442 474.924 428.936 469.798 439.183C467.291 444.311 464.345 449.093 461.01 453.447C458.879 456.234 456.216 460.907 452.887 461.317C452.887 453.447 455.018 445.823 456.882 438.445C458.946 430.493 460.81 422.459 462.874 414.425C464.605 407.457 466.07 400.653 467.268 393.521C467.734 390.57 468.134 387.536 470.197 385.651C471.995 383.929 474.924 383.11 476.922 381.88C482.366 378.617 487.657 374.977 492.767 370.977C494.831 369.337 496.562 367.124 498.693 365.648C501.107 364.075 503.441 362.323 505.683 360.401C515.403 351.384 524.192 340.235 530.05 327.036C530.982 332.365 532.247 337.529 532.447 343.022C532.447 348.679 532.181 354.335 532.048 359.91ZM452.022 423.033C450.491 419.836 448.094 421.148 446.03 422.705C442.768 425.165 439.572 427.542 436.31 429.919C429.652 434.756 423.194 439.921 416.736 445.085C403.554 455.579 389.905 464.186 376.057 473.04C362.609 481.648 349.759 491.895 337.176 502.224C334.18 504.684 331.117 507.225 328.255 509.93C325.658 512.308 323.594 515.669 320.931 517.8C318.135 520.014 316.138 518.21 313.475 516.571C310.079 514.521 306.55 512.8 303.088 510.996C289.174 503.536 275.193 495.83 261.611 487.386C248.162 479.024 235.379 469.351 222.463 459.677C216.338 455.087 210.28 450.25 204.221 445.495C197.763 440.413 191.105 436.642 184.315 432.379C181.319 430.493 178.656 427.87 175.593 426.148C172.331 424.345 168.935 423.033 166.072 420.41C164.741 419.262 163.676 417.868 162.211 416.967C161.013 416.311 159.614 416.147 158.416 415.409C155.953 413.933 155.287 410.982 154.821 407.867C151.758 387.946 150.16 367.452 148.363 347.203C147.364 335.89 146.232 324.577 144.901 313.264C144.302 308.181 145.5 304.246 146.166 299.245C146.898 293.425 147.231 287.605 147.764 281.784C150.16 287.277 152.291 293.097 155.354 298.098C157.617 301.787 161.479 307.033 165.673 306.951C172.131 306.788 171.865 293.097 172.131 287.687C175.06 290.966 175.992 296.212 178.456 299.983C180.719 303.426 183.715 307.689 187.177 309.247C194.434 312.526 193.702 295.966 193.303 291.294C193.103 288.916 192.038 285.227 194.568 286.293C196.898 287.277 199.228 291.376 201.225 293.261C204.621 296.54 208.416 299.164 211.878 302.279C216.205 306.132 220.932 308.919 225.393 312.444C228.189 314.657 231.185 315.149 234.248 316.871C238.708 319.248 242.57 322.855 246.831 325.807C255.343 331.672 264.308 336.478 273.595 340.153C276.524 341.3 280.519 344.416 282.716 341.219C284.114 339.251 284.979 336.218 286.178 333.922C287.643 331.135 289.24 328.348 290.905 325.643C296.685 315.998 303.194 307.05 310.345 298.918C318.673 289.437 327.802 281.082 337.576 273.996C341.77 270.963 359.28 257.436 363.141 266.946C360.012 266.7 357.216 268.094 354.553 269.897C353.887 270.307 350.491 273.34 351.29 270.717C350.292 270.963 349.426 272.521 348.694 273.258C347.193 274.603 345.613 275.809 343.967 276.865C342.502 277.849 340.638 278.095 339.306 279.325C338.84 279.735 338.508 280.472 338.042 280.964H336.71C336.51 281.866 336.311 282.768 336.111 283.752C335.378 280.718 334.247 284.653 332.982 285.965C332.09 286.774 331.13 287.461 330.119 288.014C329.453 288.342 329.32 287.523 328.721 288.178C328.122 288.752 327.789 290.064 327.123 290.72C326.301 291.557 325.434 292.324 324.526 293.015C322.862 294.491 321.131 295.638 319.533 296.95C317.269 298.836 316.138 301.951 313.941 303.918C312.942 304.82 311.344 304.902 310.745 305.558C309.347 307.033 309.813 309.247 307.216 309.329C307.467 309.76 307.606 310.274 307.616 310.804C306.995 310.682 306.417 310.34 305.951 309.821C306.084 313.018 303.488 314.166 301.957 316.133C300.963 317.369 300.091 318.744 299.36 320.232C299.204 320.903 299.093 321.588 299.027 322.281C298.761 322.445 297.363 320.888 297.496 320.97C297.096 323.921 294.766 326.708 293.768 329.414C293.235 330.889 292.702 333.185 291.637 334.168C291.371 334.414 290.439 334.168 289.773 335.07C289.168 335.943 288.694 336.943 288.375 338.021C288.242 338.677 288.375 340.235 288.175 340.645C287.776 341.3 287.176 340.645 286.577 341.137C285.445 342.038 285.445 343.514 283.848 343.678C284.979 347.039 291.704 348.023 294.101 349.006C301.025 351.712 308.215 354.335 314.673 358.434C316.337 359.5 317.935 360.401 318.202 362.779C318.601 366.14 317.203 370.649 316.937 374.092C316.259 383.44 316.015 392.828 316.204 402.211C316.337 410.982 316.604 419.918 316.937 428.69C317.269 436.887 318.601 444.839 319.333 452.955C319.533 455.169 319.4 465.17 322.529 464.678C325.126 464.268 323.461 457.382 323.461 455.415C323.328 451.07 324.127 446.643 324.06 442.216C324.06 440.085 324.793 438.281 324.859 436.314C324.926 434.346 324.127 432.707 324.393 430.657C324.593 428.69 329.386 417.295 324.793 418.606C325.059 416.967 325.325 415.327 325.658 413.688C326.129 414.242 326.533 414.877 326.857 415.573C327.256 412.048 327.123 408.605 327.389 405.08C327.522 403.522 328.055 401.719 327.855 400.161C327.888 399.496 327.82 398.829 327.655 398.194C327.52 398.012 327.355 397.868 327.172 397.769C326.988 397.67 326.79 397.62 326.59 397.62C326.463 397.309 326.408 396.96 326.432 396.613C326.455 396.266 326.556 395.933 326.723 395.652C326.779 395.369 326.905 395.114 327.084 394.923C327.263 394.732 327.486 394.614 327.722 394.587C328.654 394.423 328.787 393.767 328.055 392.619C328.431 390.601 328.476 388.511 328.188 386.471C327.988 384.503 328.787 380.732 327.922 378.929C326.923 376.879 326.391 378.847 326.257 376.059C326.169 375.237 326.214 374.401 326.391 373.6C326.59 372.944 327.256 373.19 327.323 372.944C327.855 371.387 327.922 368.271 325.924 368.517C325.991 367.37 326.058 366.222 326.191 365.156C327.655 367.206 327.123 365.484 327.922 364.336C328.987 362.779 330.119 362.533 331.65 361.959C335.844 360.319 339.839 357.942 343.9 355.975C352.555 351.794 361.344 348.105 369.732 343.268C387.375 332.939 404.685 321.79 422.395 311.706C421.13 308.837 421.929 308.673 422.861 305.968C424.126 307.033 423.86 306.296 424.725 306.214C424.659 305.312 424.858 305.066 425.391 305.394C425.819 305.574 426.274 305.63 426.722 305.558C427.854 305.804 428.72 306.542 429.718 306.788C430.037 307.086 430.398 307.309 430.784 307.443C431.139 307.34 431.463 307.112 431.716 306.788C433.314 307.197 433.846 308.673 433.979 310.804C433.979 311.214 433.047 311.542 433.314 312.116C433.78 313.018 435.045 312.772 435.777 312.936C435.644 313.838 435.444 314.739 435.311 315.723C438.507 313.92 437.641 319.576 438.64 321.38C438.906 321.872 439.505 321.462 439.838 322.117C440.238 322.937 440.105 324.003 440.437 324.823C441.236 326.544 441.969 326.38 442.768 328.348C446.829 338.841 452.222 348.679 456.15 359.418C458.014 364.5 459.678 369.747 461.609 374.83C463.407 379.502 464.405 383.437 463.14 388.602C460.211 400.407 457.015 412.458 453.154 423.935C452.918 423.917 452.69 423.825 452.491 423.667C452.293 423.509 452.131 423.291 452.022 423.033ZM246.098 511.406L245.299 513.127C244.7 508.783 246.298 510.832 246.098 511.406ZM233.116 503.208C232.25 502.88 232.583 501.077 232.65 500.339C233.22 501.206 233.753 502.109 234.248 503.044C233.874 503.134 233.496 503.189 233.116 503.208ZM197.43 486.484C198.362 485.829 199.028 485.419 200.093 484.681C198.962 487.222 198.962 487.222 197.43 486.484ZM141.239 259.486C139.841 263.749 144.169 290.392 140.107 291.212C139.508 288.916 139.442 282.44 137.045 281.702C134.049 280.718 134.382 287.359 133.982 289.408C127.857 284.161 125.127 274.078 122.265 266.044C118.536 255.797 115.607 245.222 112.811 234.564C110.414 225.465 108.417 216.201 106.02 207.102C104.488 201.363 102.891 195.707 101.825 189.804C101.626 188.492 100.76 185.295 101.493 184.066C102.558 182.262 106.419 184.312 107.684 184.803C115.807 187.837 124.195 189.066 132.518 190.87C141.772 192.837 151.026 194.805 160.347 196.28C162.677 196.69 165.007 197.018 167.337 197.346C168.869 197.592 171.132 197.346 172.597 198.166C175.526 199.887 176.126 206.282 177.191 209.643C181.186 222.186 185.979 234.237 190.173 246.615C193.968 257.764 196.898 269.651 202.357 279.817C198.296 277.603 193.103 265.798 188.509 272.602C186.512 275.554 187.044 279.407 187.177 282.932C187.377 288.014 187.444 293.097 187.444 298.18C182.983 296.786 179.987 290.474 177.59 286.047C174.5 280.344 172.246 274.018 170.933 267.356C170.333 264.323 168.669 264.241 167.204 262.437C166.272 261.289 165.806 259.732 164.475 261.371C162.81 263.503 163.942 269.323 164.208 271.865C164.874 277.767 167.138 286.949 164.941 292.523C161.945 300.065 154.022 281.128 153.09 278.341C152.757 276.947 144.302 250.304 141.239 259.486ZM135.713 130.37C136.246 130.452 136.712 130.534 137.245 130.616C136.845 131.026 135.98 132.583 135.314 132.173C135.447 131.681 135.58 131.026 135.713 130.37ZM162.211 123.402C162.078 123.647 161.878 123.811 161.745 124.057C161.013 122.992 161.279 121.352 161.279 120.04C161.717 120.392 162.047 120.914 162.216 121.523C162.385 122.132 162.383 122.794 162.211 123.402ZM164.341 135.698V139.305C162.411 138.24 162.344 137.666 164.341 135.698ZM166.805 140.289C165.407 139.797 165.274 139.469 165.473 136.764C166.006 138.24 166.405 139.223 166.805 140.289ZM174.794 167.014C174.195 168.9 170.799 164.473 170.933 163.161C171.066 161.931 171.598 161.522 172.331 162.341C172.597 162.587 172.198 163.571 172.397 163.899C172.863 165.129 173.995 166.112 174.794 167.014ZM174.861 178.163C173.995 180.786 172.464 176.688 174.727 176.524C174.841 177.058 174.886 177.611 174.861 178.163ZM173.196 173.982C172.863 173.455 172.552 172.908 172.264 172.343C173.396 172.589 174.328 174.72 175.526 173.326C175.327 175.458 174.128 175.458 173.196 173.982ZM98.7628 139.879C96.8987 137.42 108.949 135.616 110.414 135.206C120.87 132.031 131.058 127.639 140.84 122.09C145.567 119.467 150.227 116.843 154.821 113.892C156.818 112.662 159.548 111.597 161.212 109.711C162.411 108.399 162.344 107.334 163.875 106.514C165.207 105.858 165.274 106.514 165.873 105.284C166.206 104.546 166.672 101.841 166.405 101.021C165.806 98.808 165.007 100.611 163.809 99.1359C162.943 98.0702 163.143 94.955 163.409 93.7253C163.724 94.3124 163.907 94.9908 163.942 95.6928C165.207 94.873 164.741 92.2497 166.139 91.7578C167.604 91.2659 167.471 92.7416 167.87 94.2172C169.002 92.1677 168.07 90.4462 167.471 88.4787C170.533 87.7409 173.862 87.085 176.925 88.3147C179.122 89.2165 181.052 91.5119 183.383 91.9218C185.646 92.3317 186.112 91.02 187.777 89.6264C189.175 88.5606 190.307 89.7903 191.039 88.9705C190.573 91.7578 186.845 91.4299 187.311 94.873C187.51 96.4306 189.108 97.9062 189.841 99.1359C190.727 100.693 191.464 102.371 192.038 104.137C194.434 110.941 195.433 118.729 196.432 126.025C198.895 143.896 199.228 162.095 201.558 180.049C202.69 188.574 203.755 197.1 204.354 205.79C204.488 207.921 205.553 212.84 204.687 214.89C203.955 216.611 202.29 216.611 200.826 217.103C198.048 217.97 195.313 219.037 192.637 220.3C190.173 221.448 189.508 222.104 187.91 219.316C186.379 216.611 185.646 213.332 184.581 210.381C183.183 206.61 181.518 202.921 179.921 199.232C183.05 199.232 184.847 197.182 184.781 193.247C184.714 188.902 181.785 187.837 180.586 184.312C179.454 186.197 179.321 186.197 178.522 184.476C177.59 182.426 176.925 178.737 176.325 176.442C176.725 177.015 177.124 177.507 177.59 178.081C178.656 176.278 176.991 173.49 176.459 171.851C175.593 169.31 175.46 166.522 174.661 163.899C174.195 162.505 173.196 161.358 172.93 159.964C172.797 158.98 173.396 158.078 173.263 157.095C172.997 155.373 171.399 153.488 170.933 151.766C170.2 149.061 169.335 146.683 168.403 144.06C167.138 140.453 167.404 136.764 167.204 132.911C166.938 128.976 165.939 125.205 165.606 121.27C165.34 118.565 166.139 115.122 164.475 112.99C164.275 116.597 165.14 116.515 162.344 117.171C159.215 117.909 156.951 120.778 153.955 121.68C153.356 121.844 152.89 118.565 153.156 123.074C151.758 121.762 148.696 123.402 149.828 124.139C148.962 125.287 147.298 124.467 146.965 126.189C144.035 122.664 139.375 134.551 135.913 128.402C135.314 132.583 132.85 135.124 129.522 135.616C127.857 135.862 126.858 136.6 125.327 137.174C124.994 137.338 124.928 137.83 124.528 137.994C123.996 138.24 123.197 137.584 122.797 137.666C121.998 137.912 121.133 139.223 120.001 139.469C118.699 139.715 117.375 139.715 116.073 139.469C114.475 139.223 113.743 138.977 112.211 139.633C110.813 140.207 109.282 141.847 108.017 140.043C106.086 144.142 101.226 143.076 98.7628 139.879ZM193.569 87.167C192.038 86.9211 193.103 85.2815 193.835 84.7896C195.766 83.478 195.233 87.4129 193.569 87.167ZM107.684 102.825C116.805 86.6751 132.384 75.5261 146.099 66.1805C153.556 61.0978 161.212 56.0971 169.068 51.9162C172.996 49.8668 176.925 47.8173 180.919 46.0138C183.05 45.03 185.18 44.1283 187.377 43.3085C187.976 43.0626 189.042 42.3248 189.707 42.4067C189.574 42.4067 191.239 42.9806 190.906 43.1445C191.971 42.5707 192.504 41.0951 193.769 40.4392C195.287 39.7815 196.886 39.4487 198.496 39.4555C199.827 39.3735 201.026 40.1113 202.29 40.1113C203.156 40.1113 203.822 39.6195 204.687 39.6195C205.087 39.6195 205.087 40.3573 205.353 40.4392C205.486 40.4392 206.551 39.9474 206.618 39.9474C207.017 40.2753 207.417 41.505 207.75 41.9968C208.9 43.3516 210.258 44.4106 211.744 45.112C213.475 46.0138 217.67 46.9156 215.673 50.2767C217.071 50.0307 217.67 51.5883 215.939 51.9162C215.007 52.1622 214.607 51.0965 213.941 50.3587C212.344 48.7191 208.482 46.3417 206.152 46.4237C204.887 46.5057 203.822 47.7353 202.623 48.1452C201.425 48.5551 200.892 47.8993 199.827 47.9813C198.629 48.1452 197.83 49.3749 196.698 49.6208C195.633 49.8668 195.034 48.965 194.035 48.965C192.903 49.047 191.771 50.2767 190.706 50.6866C189.069 51.2071 187.483 51.9495 185.979 52.9C182.717 55.0314 178.988 55.7692 175.593 57.5728C172.863 59.0484 169.801 59.7862 167.271 61.3438C164.475 63.1473 161.678 64.8689 158.949 66.8363C156.951 68.23 152.957 68.7218 150.76 68.3939C150.76 73.3126 148.762 69.8695 146.765 72.001C147.232 72.5074 147.775 72.8972 148.363 73.1487C146.232 74.2144 144.235 75.5261 142.105 76.7557C139.974 77.9854 137.644 78.3133 136.246 80.6907C134.914 82.9041 135.38 81.7564 133.45 82.5762C132.584 82.9861 131.785 84.2158 131.119 85.0356C129.988 86.4292 129.788 88.5606 129.122 85.6914C128.922 86.0193 128.19 88.2327 128.057 88.3147C127.258 87.249 127.125 88.4787 126.725 88.9705C126.925 89.9543 126.592 90.5281 125.727 90.856L124.329 92.0857C122.664 93.5613 120.467 94.791 119.335 96.9225C119.129 96.8006 118.945 96.6261 118.798 96.4106C118.65 96.1951 118.541 95.9434 118.478 95.6723C118.415 95.4011 118.4 95.1165 118.433 94.8375C118.466 94.5584 118.546 94.2911 118.669 94.0532C117.005 95.9387 115.008 97.9062 114.542 100.857C114.324 100.62 114.077 100.426 113.809 100.284C113.144 100.857 114.009 102.497 114.475 102.907C116.339 102.005 114.009 102.333 115.274 102.497C115.639 102.682 116.018 102.819 116.406 102.907C117.541 102.909 118.674 102.827 119.801 102.661C122.347 102.099 124.86 101.333 127.324 100.366C129.988 99.3818 132.717 98.3981 135.314 97.1684C137.444 96.1846 139.575 95.0369 141.705 93.9712C142.571 93.5613 143.436 93.0695 144.235 92.6596C145.833 91.8398 146.698 90.4462 146.499 92.8235C147.764 92.5776 148.896 90.2822 149.894 89.3804C151.279 88.1043 152.834 87.1335 154.488 86.5112C155.08 86.1958 155.71 86.0019 156.352 85.9373C156.685 85.9373 156.885 87.085 157.085 87.085C158.549 86.6751 157.883 85.6094 158.549 84.2158C160.014 81.0186 163.942 79.2971 166.339 77.4935C167.87 76.3458 168.935 74.7882 170.333 73.5586C170.876 73.0729 171.485 72.7118 172.131 72.4929C172.664 72.3289 173.329 73.8045 173.662 72.3289C172.563 71.6395 171.429 71.0371 170.267 70.5254C169.401 70.1975 170.467 69.1317 169.135 69.7876C168.602 70.0335 168.403 71.3452 168.203 71.837C166.738 70.1975 162.544 71.919 160.813 72.5748C160.68 72.6568 160.147 72.2469 159.881 72.3289C158.882 72.4109 158.15 74.1324 157.484 74.7882C155.686 76.6738 153.756 77.4935 151.625 78.6412C152.224 74.7063 156.485 73.1487 158.949 71.5911C162.61 69.3777 166.006 66.5904 170.001 65.4427C172.664 64.6229 176.192 64.0491 177.324 67.8201C177.99 70.1155 178.123 75.772 175.793 76.8377C175.526 75.772 176.325 74.8702 176.592 73.9685C174.261 75.0342 173.862 78.4773 172.131 80.2808C171.4 80.8706 170.785 81.655 170.333 82.5762C169.932 83.6983 169.315 84.6831 168.536 85.4455C166.738 80.6907 167.005 87.167 166.072 87.9868C166.472 87.6589 164.541 88.6426 164.807 88.4787C164.741 88.4787 163.875 86.9211 163.343 86.9211C162.411 87.0031 162.544 88.3147 162.078 88.9705C160.48 91.184 158.483 92.6596 155.953 92.3317C155.886 93.8893 156.286 95.7748 154.555 95.9387L154.355 92.4136C153.423 93.6433 152.158 94.709 151.359 96.1027C150.493 97.6603 150.56 98.644 149.095 99.7097C147.564 100.775 144.302 102.989 142.504 103.153C142.62 103.001 142.706 102.82 142.756 102.621C142.806 102.423 142.819 102.213 142.793 102.007C142.767 101.802 142.704 101.606 142.608 101.435C142.512 101.265 142.385 101.123 142.238 101.021C141.306 102.169 139.974 102.333 138.976 103.317C142.371 105.038 136.379 104.956 135.58 105.202C135.047 105.366 134.648 105.94 134.115 106.022C133.45 106.186 133.316 105.284 132.784 105.612C131.918 106.022 132.251 107.17 131.386 107.744C130.72 108.154 129.655 108.154 128.922 108.563C127.191 109.547 123.463 111.597 122.265 109.055C121.665 113.4 115.54 110.777 113.343 110.449C110.148 109.711 104.821 107.908 107.684 102.825ZM120.667 57.9827C120.755 57.8721 120.861 57.7858 120.979 57.7294C121.096 57.673 121.222 57.6479 121.347 57.6557C121.473 57.6634 121.596 57.7038 121.708 57.7743C121.821 57.8448 121.919 57.9438 121.998 58.0646C121.399 54.1297 126.126 52.1622 128.19 50.5226C130.92 48.3092 134.115 43.9643 137.711 44.2922C137.111 44.8661 136.512 45.4399 135.913 45.9318C136.778 46.0958 137.644 46.1777 138.509 46.3417C138.043 47.2435 137.511 48.1452 137.045 48.965C136.246 43.5544 132.051 50.3587 130.853 51.4244C129.612 52.2841 128.431 53.2714 127.324 54.3756C126.259 55.6053 125.261 57.8187 123.53 56.671C123.396 59.7862 121.333 58.9664 119.934 60.6879C119.735 59.6222 120.267 58.8844 120.667 57.9827ZM139.175 42.4887C143.503 40.5212 147.231 36.8322 151.292 34.2089C155.154 31.6675 159.148 29.4541 163.076 27.0767C165.074 25.8471 168.736 22.8139 171.066 24.3715C174.128 26.5029 169.934 27.1587 168.802 27.8965C168.403 24.6174 166.938 27.5686 167.803 29.3721C165.473 28.1425 160.28 33.0612 158.017 34.3728C157.484 34.7008 157.75 34.8647 157.151 35.1926C157.018 35.2746 155.553 35.6845 155.087 35.8485C152.957 36.7502 151.559 36.0124 150.693 39.2096L150.094 36.9962C148.762 40.6852 144.768 42.2428 142.171 44.4562C141.505 45.03 139.641 47.1615 138.776 46.7516C137.644 46.1777 138.11 42.9806 139.175 42.4887ZM217.071 53.5558C218.868 53.7198 217.137 54.7855 217.603 55.4413C217.537 55.3593 218.669 56.589 218.535 56.2611C218.735 56.671 219.201 56.671 219.467 57.5728C220.333 60.6879 216.538 63.9671 215.273 65.6886C212.81 69.1317 211.345 73.4766 208.815 76.8377C207.766 78.3052 206.406 79.384 204.887 79.9529C203.755 80.3628 202.557 79.9529 201.558 81.2646C200.693 82.3303 200.892 82.9861 199.96 83.56C198.362 84.5437 197.63 83.7239 196.032 85.8554C194.701 81.2646 198.562 81.3465 200.626 78.8052C203.422 75.2801 206.551 71.7551 209.148 67.984C211.478 64.6229 212.41 61.7537 213.542 57.6547C213.875 56.3431 214.274 53.6378 215.273 52.818C216.871 51.5883 215.939 53.4738 217.071 53.5558ZM226.059 171.851C230.912 165.137 236.708 159.555 243.169 155.373C245.499 153.98 248.761 152.094 251.092 154.307C253.422 156.439 252.956 160.702 251.957 163.653C251.025 163.243 251.891 159.144 251.425 158.16C250.426 155.947 248.229 157.095 246.698 157.833C244.977 158.61 243.378 159.747 241.971 161.194C241.438 161.849 240.306 162.423 239.973 162.833C239.441 162.587 239.108 162.751 239.041 163.407C239.096 163.607 239.119 163.819 239.107 164.03C239.096 164.241 239.051 164.447 238.975 164.637C238.908 164.801 238.176 164.227 238.109 164.309C237.643 164.801 237.244 165.375 236.778 165.784C235.842 166.515 234.991 167.397 234.248 168.408C232.65 170.867 230.519 172.261 228.921 174.556C228.599 175.188 228.31 175.846 228.056 176.524C227.257 177.671 226.059 178.655 225.126 179.885C223.543 181.861 221.828 183.67 220 185.295C219.118 186.053 218.352 186.997 217.736 188.083C217.47 188.574 217.337 191.362 217.337 191.362C215.539 193.821 215.872 188.902 216.005 188.329C217.537 181.688 222.463 176.688 226.059 171.851ZM216.205 216.447C216.405 217.513 216.605 218.333 216.871 219.398C215.406 217.923 215.406 217.923 216.205 216.447ZM214.674 219.808L213.076 221.776C211.878 220.218 214.874 219.562 214.674 219.808ZM213.875 193.657C213.342 196.444 211.278 199.806 209.88 202.019C210.013 201.773 208.682 202.265 208.549 202.347C208.016 202.675 209.281 205.052 207.484 203.986C206.884 204.396 208.083 206.2 207.217 206.938C204.82 200.133 211.412 194.231 213.941 189.23C215.273 190.624 214.208 192.1 213.875 193.657ZM198.163 230.384C199.96 230.957 200.826 230.629 202.024 228.416C202.757 227.104 203.023 224.891 204.621 226.776L204.887 224.317C207.217 225.465 207.017 229.728 208.083 232.105C208.549 229.4 209.747 221.94 213.342 223.169C217.404 224.481 210.679 233.089 210.013 235.22C208.615 232.597 209.148 235.056 208.149 235.384C207.217 235.712 205.819 234.892 204.754 234.974C201.425 235.22 198.496 237.024 195.433 238.581C194.634 236.04 193.902 233.499 193.103 230.875C194.9 231.039 198.629 225.137 199.095 229.482C197.763 229.236 197.364 229.236 196.765 230.793C197.206 230.55 197.68 230.411 198.163 230.384ZM205.619 263.749C206.86 263.861 208.105 263.889 209.348 263.831C211.678 262.765 210.812 259.486 211.345 257.109C212.344 258.174 211.811 260.224 212.077 261.617C212.41 263.257 213.475 264.733 213.542 266.536C213.742 270.553 211.079 269.651 209.015 270.963C207.284 272.111 207.084 273.504 205.619 270.471C205.22 269.651 204.354 267.52 204.421 266.454C204.554 265.552 205.886 264.651 205.619 263.749ZM208.416 281.21L207.484 279.899C210.346 280.964 208.682 279.325 209.281 277.193C211.478 278.997 213.276 280.8 214.94 277.275L217.936 292.113C215.939 292.687 213.342 288.916 211.944 287.605C211.145 286.867 206.751 283.916 209.414 283.096C209.081 282.44 208.748 281.866 208.416 281.21ZM227.923 234.728C226.258 236.696 224.594 237.762 222.796 239.237C221.198 240.549 221.731 242.106 220.4 243.582C219.467 244.566 217.337 245.55 216.205 246.369C214.208 247.681 212.41 248.009 210.346 246.451C210.879 252.026 207.816 252.436 203.955 253.583C202.091 254.075 201.026 254.895 199.694 252.846C198.762 251.452 198.429 248.829 199.561 247.599C201.358 245.55 206.152 246.287 208.416 244.976C210.147 243.992 211.944 238.499 214.075 240.467C212.943 238.253 214.274 237.68 215.206 236.122C216.272 234.4 216.937 232.433 218.003 230.711C220.287 227.322 223.064 224.487 226.192 222.35C228.788 220.628 230.12 221.858 230.519 225.465C230.719 227.268 230.719 229.974 229.92 231.531C229.654 232.023 228.788 232.023 228.522 232.515C228.189 233.335 228.589 233.909 227.923 234.728ZM258.349 191.608C260.412 193.575 260.213 197.756 260.546 200.543C261.012 204.56 260.679 208.413 260.612 212.43C260.546 216.693 258.881 219.48 258.082 223.415C257.217 227.842 256.085 230.22 254.088 233.909C256.218 234.318 253.022 242.27 252.49 243.254C251.891 244.402 247.297 249.485 249.294 249.485C248.229 251.288 247.03 253.092 245.899 254.813C245.499 255.469 244.7 255.797 244.367 256.207C243.702 257.191 243.635 258.092 243.169 259.158C242.437 260.88 242.17 260.388 241.172 261.699C240.506 262.601 240.04 263.749 239.374 264.569C237.244 267.274 236.977 265.06 235.712 263.011C235.627 263.274 235.491 263.507 235.318 263.693C235.144 263.878 234.937 264.01 234.714 264.077C234.314 261.781 236.911 259.404 238.042 258.01C239.84 255.715 241.438 253.092 243.036 250.632C246.451 245.234 249.397 239.409 251.824 233.253C254.441 226.618 256.344 219.59 257.483 212.348C258.282 206.856 259.081 197.51 253.089 196.116C248.761 195.133 243.968 198.33 240.439 200.953C238.242 202.511 236.112 204.15 233.981 205.954C231.718 207.921 229.787 210.627 227.324 212.184C228.655 211.365 224.261 213.906 224.927 213.168C224.594 213.496 224.86 214.562 224.66 214.972C224.196 215.623 223.63 216.152 222.996 216.529C221.864 217.595 220.067 218.661 219.601 220.3C212.477 214.07 226.591 203.003 230.253 200.215C237.576 194.641 250.026 183.738 258.349 191.608ZM277.523 131.026C277.456 126.517 280.452 120.45 282.45 116.761C283.448 114.958 284.979 115.04 285.579 112.908C285.912 111.679 285.445 110.449 285.579 109.219C285.786 107.639 286.262 106.13 286.977 104.792C293.035 91.9218 300.425 80.6087 308.281 69.3777C312.143 63.8851 315.805 58.1466 319.999 52.9C321.73 50.7685 326.457 42.9806 329.12 43.7184C330.518 44.1283 331.384 46.8336 331.983 48.1452C333.036 50.3761 334.215 52.5129 335.512 54.5396C338.844 60.0247 342.894 64.7897 347.496 68.6399C350.358 71.0992 353.288 73.3946 356.151 75.936C358.481 77.9854 362.009 80.4448 363.674 83.314C365.338 86.2652 362.875 88.7246 361.543 91.184C359.479 94.955 357.549 98.8899 355.485 102.661C354.686 101.923 354.886 100.448 354.286 99.4638C353.73 98.7553 353.076 98.1726 352.356 97.7422C351.024 96.7585 349.693 95.5288 348.494 97.1684C346.364 100.038 349.293 106.842 352.422 106.104C352.822 108.973 346.563 113.646 344.966 115.204C340.172 120.04 335.245 124.221 328.92 124.631C326.332 124.868 323.731 124.478 321.264 123.483C320.029 123.034 318.892 122.249 317.935 121.188C316.87 119.876 316.604 117.909 315.538 116.597C314.606 115.45 313.408 115.286 312.476 114.138C311.544 112.99 311.144 111.187 310.745 109.711C310.013 106.842 309.879 103.809 309.214 100.939C308.814 99.2179 308.481 96.8405 307.083 98.562C305.152 101.021 306.084 108.645 306.617 111.515C307.349 115.696 309.014 118.975 310.745 122.582C312.676 126.435 313.341 130.042 313.674 134.551C314.35 142.89 316.269 151.005 319.333 158.488C320.598 161.686 322.13 164.637 323.528 167.752C324.193 169.228 325.592 174.146 327.389 174.146C330.185 174.064 326.191 164.063 325.658 162.341C322.596 152.996 319.666 143.158 319 132.993C323.395 134.387 328.188 135.698 332.782 134.797C329.853 142.912 332.915 150.946 332.516 159.308C332.316 163.489 332.183 167.342 332.249 171.523C332.316 175.212 330.984 178.819 329.786 182.18C327.456 188.738 324.593 196.854 320.332 201.855C316.737 206.036 311.943 206.364 307.283 205.38C296.63 203.167 289.706 193.083 285.246 181.688C282.356 174.333 280.209 166.569 278.854 158.57C277.256 149.635 277.656 140.371 277.523 131.026ZM291.304 68.8858C281.384 60.0321 295.765 50.0307 303.155 51.4244C304.886 51.7523 308.015 52.654 307.882 55.3593C307.749 57.6547 304.686 60.1141 303.488 61.5077C300.159 65.4427 296.697 73.7225 291.304 68.8858ZM363.408 265.142C363.075 264.733 360.278 265.716 361.41 263.667C362.342 262.027 364.872 264.077 365.804 264.487C365.005 265.142 364.34 266.126 363.408 265.142ZM322.13 371.96C321.264 372.124 320.399 369.255 323.461 371.387C322.995 371.551 322.596 371.797 322.13 371.96ZM322.063 418.114C322.196 419.344 322.462 420.246 321.73 421.148C321.131 420.164 321.064 418.852 322.063 418.114ZM323.328 437.133C323.261 437.789 323.128 438.527 323.062 439.183C322.329 438.773 321.664 438.281 320.931 437.871L323.328 437.133ZM324.193 421.066C325.259 421.557 324.726 420 325.525 419.754C325.648 420.507 325.641 421.283 325.503 422.032C325.366 422.781 325.101 423.485 324.726 424.099C324.505 423.1 324.328 422.087 324.193 421.066ZM351.157 306.05C349.693 305.804 349.426 307.771 348.361 308.509C347.629 309.001 345.498 308.591 345.099 309.575C345.631 309.739 346.164 309.985 346.697 310.149C345.498 310.968 344.233 311.788 343.035 312.608C345.964 312.608 349.027 310.886 351.956 311.378C352.528 311.442 353.083 311.649 353.587 311.987C354.091 312.326 354.533 312.788 354.886 313.346C355.387 314.191 355.707 315.178 355.818 316.215C355.884 317.199 355.285 317.937 355.352 318.346C356.683 318.428 356.483 321.052 356.217 322.117C355.551 324.495 353.021 328.184 350.758 326.626C351.69 328.266 351.49 329.25 350.025 330.233C350.159 329.66 350.225 328.676 349.493 328.84C349.293 329.742 349.36 331.217 348.76 331.955C348.095 332.775 347.429 331.791 346.83 332.365C346.031 332.939 346.297 333.922 345.698 334.578C344.899 335.48 344.766 334.824 343.834 334.988C342.369 335.234 343.301 334.086 342.103 335.562C341.703 336.054 341.77 337.366 341.104 338.103C339.839 339.497 336.444 340.973 335.245 339.169C332.316 344.826 323.594 346.219 319.533 341.71C313.075 334.578 325.126 319.986 329.12 315.313C333.115 310.641 337.576 306.706 342.103 302.771C344.633 300.557 347.296 298.59 349.959 296.622C351.623 295.393 353.687 293.179 355.751 293.425C357.549 293.589 359.147 295.393 361.077 295.72C362.475 295.966 365.139 296.376 363.408 298.672C362.609 299.737 359.346 301.541 358.281 301.787C357.615 301.951 356.949 301.623 356.35 301.787C355.285 302.033 354.553 303.18 353.354 303.017C353.687 305.312 353.021 306.378 351.157 306.05ZM370.398 226.367C370.398 228.006 367.935 227.596 367.402 227.022C366.537 226.121 366.537 223.251 366.204 222.022C367.602 222.514 370.398 224.153 370.398 226.367ZM350.358 170.949C355.561 165.637 361.08 160.814 366.87 156.521C368.933 154.963 371.863 151.93 374.459 152.258C375.525 152.422 377.788 153.98 376.989 155.619C376.856 155.947 375.658 156.029 375.258 156.275C374.859 156.521 374.526 157.259 374.126 157.587C371.397 160.046 368.134 161.522 365.405 164.063C363.141 166.112 361.077 168.408 358.68 170.211C356.35 171.933 353.954 172.999 351.756 174.884C351.823 174.884 348.894 176.114 349.493 176.36C346.896 175.376 349.626 171.687 350.358 170.949ZM385.178 168.982C388.307 167.424 391.303 165.62 394.566 164.555C396.184 163.965 397.876 163.742 399.559 163.899C399.595 163.763 399.658 163.641 399.741 163.542C399.825 163.442 399.926 163.369 400.038 163.329C400.149 163.289 400.266 163.282 400.38 163.31C400.494 163.338 400.6 163.399 400.691 163.489C401.06 164.178 401.563 164.742 402.155 165.129C403.088 166.03 406.483 167.178 405.817 169.064C405.351 170.375 401.956 170.457 401.024 170.703C398.161 171.605 395.564 173.49 392.635 173.982C392.224 173.949 391.82 173.839 391.436 173.654C390.305 173.982 389.373 175.376 388.374 176.114C386.243 177.589 383.248 177.835 381.716 180.459C386.576 184.558 390.837 180.459 395.165 177.425C397.757 175.611 400.503 174.154 403.354 173.081C404.819 172.425 406.283 171.851 407.815 171.277C408.439 170.999 409.087 170.807 409.745 170.703C410.01 170.6 410.297 170.628 410.546 170.781C410.794 170.934 410.985 171.2 411.077 171.523C412.874 171.441 413.008 170.047 414.139 172.671C415.671 176.36 413.34 176.114 411.143 176.606C408.081 177.261 405.018 178.655 401.956 179.557C401.29 179.803 395.165 181.524 395.165 181.606C394.899 183.984 412.342 181.77 413.806 181.442C416.47 180.786 419.266 179.065 421.995 179.475C424.126 179.803 428.853 183.574 425.524 186.115C424.858 182.262 422.595 185.459 421.396 186.771C419.798 188.492 417.535 188.329 415.404 189.066C412.475 189.968 404.885 193.493 402.755 189.066C403.42 193.001 391.37 191.034 389.706 190.87C388.108 190.706 385.977 191.198 384.446 190.624C383.447 190.214 382.848 189.476 381.916 189.23C381.67 189.524 381.374 189.748 381.05 189.886C380.566 189.58 380.118 189.194 379.719 188.738C376.523 186.935 371.463 185.869 373.261 180.049C375.059 174.392 381.117 171.031 385.178 168.982ZM415.471 172.343C415.538 171.98 415.627 171.624 415.737 171.277C415.737 172.343 417.801 172.753 417.535 174.146C417.002 177.179 414.672 172.671 414.472 172.179C414.8 172.274 415.134 172.328 415.471 172.343ZM427.854 177.343C428.121 178.573 430.784 181.196 430.118 181.77C429.053 180.049 426.123 180.868 427.854 177.343ZM382.315 289.818C383.314 287.441 386.31 291.54 385.977 287.359C387.575 287.523 386.576 289.08 388.507 288.424C389.239 288.178 389.706 287.195 390.638 286.949C391.17 286.908 391.703 286.908 392.235 286.949C393.434 286.867 398.028 286.785 394.832 284.817C396.63 283.342 396.829 284.079 398.427 285.391C398.028 282.686 400.358 284.243 401.49 284.571C400.691 283.014 402.621 281.374 403.287 280.308C403.088 281.948 403.154 283.752 405.085 282.686C405.551 282.44 405.484 281.292 405.817 281.128C406.483 280.8 406.882 281.374 407.149 281.374C407.57 281.464 408.002 281.436 408.414 281.292C409.079 280.964 408.747 279.899 409.612 279.735C410.145 279.653 410.544 280.636 411.21 280.636C411.543 280.636 412.142 280.226 412.408 280.226C412.475 280.226 412.808 279.243 413.207 279.243C413.806 279.243 414.006 281.128 414.272 281.538C415.302 283.257 416.679 284.614 418.267 285.473C415.404 288.67 409.679 288.342 406.083 289.408C404.216 290.011 402.408 290.863 400.691 291.949C400.268 292.291 399.887 292.705 399.559 293.179C399.304 292.98 399.059 292.761 398.827 292.523C397.828 292.605 396.962 292.031 395.831 292.195C392.435 292.933 389.772 296.048 386.377 296.704C384.845 297.032 383.58 297.442 382.582 295.802C381.517 294.491 381.716 291.376 382.315 289.818ZM377.655 270.553C378.454 271.373 377.522 273.914 378.987 273.668C380.052 273.504 379.852 271.455 380.651 271.045C381.716 270.471 382.382 271.783 383.447 271.701C385.378 271.455 385.245 269.405 383.647 268.504C385.311 267.93 385.844 270.389 387.309 270.389C389.239 270.389 388.773 267.52 390.438 267.028C391.17 266.864 390.904 268.094 391.37 268.258C392.302 268.586 392.968 268.012 393.767 267.52C394.499 267.11 395.032 266.208 395.831 265.962C396.23 265.798 397.162 266.044 397.428 265.798C397.961 265.306 398.427 263.421 398.96 263.175C399.542 263.67 400.167 264.082 400.824 264.405C400.691 265.224 400.291 265.306 399.759 264.651C399.759 266.454 403.82 267.028 403.021 264.815C405.218 265.962 403.554 266.536 403.354 268.094C403.287 268.749 402.954 268.668 403.088 269.405C403.154 269.733 404.286 269.487 404.286 269.897C404.219 272.602 397.229 273.422 395.897 273.668C393.184 274.179 390.511 274.974 387.908 276.046C385.911 276.783 382.582 278.997 380.451 278.833C377.455 278.669 377.056 273.832 377.655 270.553ZM370.931 243.008C370.198 239.975 372.529 233.827 375.591 234.564C376.323 234.728 376.523 235.548 377.122 235.876C377.921 236.368 379.253 236.122 379.985 236.614C381.583 237.68 380.784 240.549 382.382 241.533C379.852 242.27 372.129 247.763 370.931 243.008ZM373.86 254.649C374.925 253.911 376.723 253.829 377.455 252.436C377.855 252.764 378.521 254.649 379.186 254.321C379.519 254.157 379.785 253.174 379.785 253.174C380.385 253.174 380.518 252.19 381.383 252.272C382.182 252.354 383.114 253.583 383.847 254.075C383.714 251.042 384.379 250.796 386.31 249.157C386.776 248.829 387.109 247.435 387.508 246.943C387.109 250.14 388.108 250.14 390.172 250.632C391.353 250.84 392.465 251.448 393.382 252.389C394.299 253.33 394.986 254.567 395.365 255.961C393.168 255.469 390.305 256.043 389.439 258.994C387.708 255.059 381.317 260.47 379.253 261.617C377.722 262.437 375.924 263.585 374.659 261.617C373.727 260.224 374.26 258.666 374.326 257.436C374.326 257.027 374.659 257.027 374.592 256.453C374.592 255.797 373.86 255.469 373.86 254.649ZM397.295 316.707C396.696 316.953 393.7 317.117 393.7 315.887C393.7 314.821 398.96 315.887 397.295 316.707ZM392.435 312.772C390.172 314.493 387.642 308.427 386.843 306.706C389.239 307.115 390.371 304.656 391.769 302.771C393.101 306.378 395.098 304.492 397.229 303.262C399.759 301.869 402.488 301.869 405.018 300.721C405.817 300.393 406.55 299.819 407.348 299.409C407.948 299.082 408.613 298.836 409.213 298.508C409.428 298.299 409.588 298.016 409.671 297.694C409.754 297.373 409.757 297.028 409.679 296.704C409.479 296.13 409.612 295.72 410.078 295.556C410.664 295.772 411.266 295.909 411.876 295.966C412.874 295.72 414.273 294.573 413.074 293.343C414.339 291.949 415.604 293.343 416.869 293.999C416.603 292.933 416.27 291.949 416.004 290.884C416.603 291.212 418.4 294.327 418.6 294.327C419.798 294.245 419.665 292.277 420.331 291.54C420.731 292.113 420.864 296.54 422.328 295.065C422.994 294.409 421.596 292.277 421.197 291.785C422.928 292.277 424.459 294.819 424.925 296.868C424.109 297.017 423.277 296.783 422.595 296.212C422.129 299 426.323 297.852 426.989 299.327C428.32 302.197 419.732 304.164 418.6 304.41C416.336 304.902 413.74 305.148 411.676 306.378C409.679 307.525 409.213 307.853 406.949 308.099C404.352 308.345 401.756 309.411 399.226 310.231C397.162 310.804 394.432 311.296 392.435 312.772ZM440.437 211.201C442.501 210.299 449.492 205.544 451.289 207.593C451.629 208.732 452.052 209.83 452.554 210.873C452.688 212.84 452.621 213.578 450.69 214.562C449.292 215.217 448.094 213.824 446.829 214.398C445.431 215.054 446.429 216.119 445.697 216.857C444.898 217.677 443.433 218.087 442.435 218.415C440.038 219.316 437.708 220.054 435.311 221.038C430.517 223.005 425.457 224.809 420.531 226.203C416.869 227.268 410.611 229.81 407.215 226.776C406.882 228.498 406.083 228.252 404.952 228.498C403.876 228.816 402.787 229.062 401.689 229.236C400.358 229.318 396.763 228.826 397.295 226.613C397.162 227.268 400.092 225.137 399.625 224.973C400.89 225.301 400.491 224.481 401.49 224.071C402.821 223.497 404.219 223.497 405.617 222.923C409.079 221.448 411.942 219.48 415.604 218.497C423.993 216.447 432.448 214.726 440.437 211.201ZM106.419 443.692C105.753 443.692 105.221 441.314 107.285 443.036C107.018 443.2 106.752 443.446 106.419 443.692ZM90.241 440.576C89.3089 440.904 88.976 440.249 89.1757 438.691C90.3741 438.117 90.7736 438.691 90.241 440.576ZM77.6579 437.461C77.3916 436.068 78.2571 435.74 78.9894 435.166C78.9894 436.969 78.9894 436.969 77.6579 437.461ZM46.1668 426.066C44.9019 425.738 43.2374 424.181 42.9045 426.722C42.7048 426.148 41.6396 423.361 42.1056 422.705C42.3719 422.377 43.2374 423.935 43.1708 423.771C44.3027 420.984 46.1668 424.345 47.2986 425.328C46.8992 425.574 46.4997 425.82 46.1668 426.066ZM376.257 120.204C376.723 119.057 377.189 118.729 377.788 119.139C376.856 121.762 373.727 123.238 376.257 120.204ZM398.227 95.1189C399.026 96.9225 397.828 97.6603 396.962 99.2179C397.495 97.5783 397.828 96.5126 398.227 95.1189ZM493.699 271.619C496.495 271.619 502.554 269.815 504.218 273.75C505.35 271.045 506.615 276.128 507.614 276.947C507.747 277.029 508.413 276.373 508.746 276.619C509.253 277.165 509.661 277.835 509.944 278.587C510.81 280.39 511.142 282.522 511.608 284.489C506.682 284.489 501.622 283.096 496.695 282.522C493.483 282.221 490.259 282.167 487.041 282.358C486.376 282.44 485.111 282.112 484.578 282.276C484.046 282.44 482.98 283.834 482.381 283.588C483.313 285.801 495.63 291.13 496.562 288.67C495.43 287.85 492.967 287.195 492.967 285.227C492.967 283.014 495.297 283.014 496.495 283.096C499.159 283.26 503.686 284.325 504.751 287.768C505.217 289.244 505.35 292.933 504.818 294.327C504.485 295.229 503.952 296.376 503.02 296.54C502.621 296.622 502.155 296.048 502.088 296.048C500.224 296.54 496.828 298.344 494.831 295.802C493.366 298.098 486.442 295.556 484.312 294.737C480.583 293.179 475.457 291.13 473.193 286.867C470.464 281.62 476.056 277.275 479.252 275.144C483.779 272.275 488.772 271.619 493.699 271.619ZM512.474 283.67C513.339 283.997 514.205 284.243 515.07 284.571C514.871 286.457 511.409 284.981 512.474 283.67ZM538.639 351.63C538.905 344.17 537.174 337.529 536.109 330.315C535.843 328.512 536.109 325.397 534.977 323.921C533.912 322.527 531.582 323.675 531.448 321.134C530.383 322.609 530.516 322.937 529.251 321.216C529.496 321.943 529.542 322.748 529.385 323.511C528.586 322.937 525.723 321.052 525.923 323.675C523.526 323.019 524.258 321.216 522.86 319.822C522.66 319.658 521.861 320.314 521.595 320.068C521.139 319.534 520.716 318.958 520.33 318.346C519.691 319.15 519 319.89 518.266 320.56C518.076 319.997 517.776 319.501 517.392 319.115C517.009 318.729 516.555 318.465 516.069 318.346C517.001 320.724 519.198 323.675 516.136 325.069C514.272 325.889 511.276 324.905 509.345 325.069C502.155 325.725 494.232 323.839 487.241 321.708C480.051 319.494 472.861 316.461 466.403 311.952C465.175 311.018 464.036 309.918 463.007 308.673C461.875 307.525 461.01 307.361 459.612 306.624C457.108 305.23 454.848 303.254 452.954 300.803C448.893 295.72 445.098 288.998 446.23 281.538C447.361 274.078 451.489 268.258 455.95 263.421C461.211 257.645 467.078 252.765 473.393 248.911C476.189 247.189 483.38 240.631 486.176 244.484C487.974 246.943 486.975 250.058 484.512 250.632C483.912 250.796 483.313 250.304 482.714 250.632C481.848 251.124 482.181 251.698 481.782 252.108C481.145 253.048 480.406 253.876 479.585 254.567C476.323 256.699 473.193 258.42 470.064 261.043C468.6 262.273 467.268 262.765 466.003 263.831C464.738 264.896 464.472 266.618 462.741 265.552C463.34 268.586 459.745 271.865 458.28 273.668C456.083 276.537 453.42 280.226 454.485 284.489C456.483 292.851 465.537 299.164 471.396 302.853C478.698 307.593 486.562 310.886 494.698 312.608C498.693 313.346 502.887 313.838 506.882 314.33C510.011 314.739 514.871 313.346 517.134 316.871C517.201 312.772 527.52 313.182 529.717 312.608C525.323 294.081 516.668 277.603 507.414 262.191C502.887 254.649 498.426 246.861 493.233 239.893C487.574 232.269 481.116 225.547 474.924 218.579C462.874 204.888 449.226 192.673 435.378 181.934C421.529 171.195 407.215 160.62 392.036 152.996C374.726 144.224 356.483 138.486 338.241 133.567C340.705 129.714 344.766 127.746 347.895 124.959C349.027 123.975 350.491 121.598 351.956 121.27C353.487 120.942 354.752 122.992 355.884 124.057C359.08 127.009 361.277 125.779 364.939 125.615C367.136 125.533 372.329 127.009 373.194 123.402C374.393 125.451 372.662 127.009 371.73 128.484C372.395 129.632 372.928 128.402 373.594 128.238C373.794 127.992 373.993 127.828 374.193 127.582C374.526 127.009 374.792 127.009 375.059 127.582C375.458 128.32 375.857 128.156 376.257 127.091C376.39 127.009 376.457 126.927 376.59 126.845C377.056 126.517 377.522 126.025 377.988 125.697C381.092 122.8 384.414 120.275 387.908 118.155C390.97 116.351 389.306 112.908 391.37 110.449C391.836 109.875 392.635 110.203 393.101 109.711C393.567 109.219 393.634 108.727 394.033 108.236C394.899 107.088 393.9 105.694 396.03 107.088L395.231 101.677C399.426 106.678 399.426 92.2497 400.025 90.0363C399.958 90.2822 400.424 88.1508 400.424 88.1508C400.558 83.8059 401.024 80.6087 396.896 80.3628C398.494 79.1331 398.96 81.5105 399.692 79.0511C400.025 77.8215 398.893 75.69 400.757 76.5098C401.157 73.8865 400.757 71.7551 400.291 69.2137C399.825 66.5904 400.092 64.8689 400.092 62.2455C400.092 59.2943 399.026 56.3431 398.627 53.3919C398.361 51.0965 398.627 47.5714 396.23 48.3912C395.897 47.7353 397.096 45.7679 397.029 44.7841C396.962 43.2265 395.631 41.6689 395.231 40.2753C394.971 40.6359 394.629 40.8914 394.248 41.0084C393.868 41.1254 393.468 41.0985 393.101 40.9311C393.833 38.9636 393.168 38.3078 392.435 36.5863C392.036 35.6025 392.302 34.5368 391.436 33.799C390.97 33.3891 390.105 34.0449 389.772 33.635C388.973 32.6513 389.239 31.2577 388.707 29.946C387.975 28.3064 386.377 26.9948 385.311 25.6831C379.12 18.633 372.395 13.1404 364.14 10.4351C355.818 7.64783 346.164 6.66409 337.842 9.86126C334.513 11.1729 331.584 11.009 328.588 13.3863C327.589 14.2061 327.522 13.9602 327.056 15.2718C326.923 15.5998 327.988 16.4195 327.323 16.9114C326.657 17.4853 325.858 16.3376 325.525 15.4358C321.197 19.2888 317.203 24.3715 314.74 30.2739C312.276 36.0944 312.076 42.9806 311.144 49.2929C306.883 42.6527 301.091 39.7834 294.766 42.6527C289.24 45.194 284.979 50.7685 283.914 57.9827C283.319 62.355 283.904 66.8468 285.579 70.7713C286.311 72.4929 287.11 74.3784 288.441 75.5261C289.44 76.4278 291.238 76.3458 291.704 77.9854C292.436 80.5267 288.175 85.9373 287.11 88.1508C285.07 92.1108 283.31 96.2798 281.85 100.611C276.79 91.8398 271.93 82.1663 266.205 74.0504C260.745 66.4264 254.287 59.5402 247.962 53.0639C234.78 39.6195 221.065 26.9948 206.352 16.2556C192.504 6.33618 175.926 0.843616 159.947 2.72912C144.302 4.61463 132.318 16.8294 122.265 30.8478C102.891 57.8187 91.0399 96.3486 89.9081 132.255C89.4886 142.975 90.3182 153.714 92.3714 164.145C93.3701 169.146 93.2369 174.064 93.8361 179.065C94.5019 184.721 95.7003 190.46 96.8321 196.035C101.229 217.388 106.563 238.433 112.811 259.076C116.006 269.733 119.868 280.226 125.127 289.654C127.524 293.999 130.653 297.442 133.316 301.541C135.846 305.558 136.512 310.477 137.045 315.395C138.376 327.2 139.242 339.005 140.041 350.892C140.374 355.893 140.773 360.893 141.306 365.894C141.772 370.239 140.573 369.993 137.644 371.551C138.243 367.616 124.062 370.321 122.664 370.567C121.199 370.895 119.668 370.895 118.536 371.059C117.225 371.426 115.886 371.618 114.542 371.633C112.345 371.551 108.283 370.895 107.484 374.256C106.885 370.321 103.157 374.666 105.953 373.928C103.09 374.338 100.161 373.682 97.2316 374.01C93.9027 374.42 90.5738 374.748 87.245 375.404C84.9148 375.813 82.7177 376.961 80.4541 377.207C77.5247 377.617 74.3956 377.535 71.4662 377.863C60.4809 379.093 49.0962 382.044 38.4439 385.405C36.0471 386.143 33.2508 386.717 30.9206 387.946C30.3214 388.274 29.7222 389.012 29.123 389.258C28.1244 389.75 28.2575 389.422 27.392 389.586C22.1324 390.897 16.6731 393.029 11.3469 394.668C8.41751 395.57 3.62395 396.39 1.22716 398.931C0.161929 400.079 -0.770153 402.047 0.960856 403.358C2.35898 404.342 4.28972 402.784 5.42153 401.883C4.42287 405.08 2.55871 406.637 3.55737 410.244C4.3563 413.114 6.15388 416.639 8.88355 414.753C9.28301 415.819 9.41617 417.95 10.4814 418.278C11.4801 418.606 12.1458 417.131 13.1445 417.459C13.4774 417.622 13.3442 418.36 13.6771 418.606C14.2168 418.901 14.773 419.148 15.3415 419.344C15.9614 419.676 16.6088 419.923 17.2723 420.082C17.6838 419.925 18.0677 419.675 18.4041 419.344C19.203 419.508 19.6025 421.394 20.2017 421.885C20.8574 422.514 21.64 422.911 22.4653 423.033C24.3961 423.525 26.8594 424.427 28.191 422.049C27.9246 423.771 29.7888 423.607 30.6543 423.853C30.601 423.396 30.4732 422.957 30.2787 422.563C30.0842 422.168 29.827 421.826 29.5225 421.557C31.3867 421.721 30.6543 424.017 32.0524 424.673C33.0511 425.083 32.9179 424.017 33.7169 423.853C34.7155 423.689 35.5145 424.591 37.0457 423.771C37.3786 425.656 37.5118 427.542 39.3759 427.788C40.4412 427.952 43.0377 425.492 42.838 427.542C45.3013 426.64 46.1668 427.296 47.4984 429.919C47.6981 428.28 48.7633 428.772 49.6954 428.69C51.2267 428.526 51.2267 428.69 52.4251 427.624C52.5582 427.542 53.4237 424.919 53.8898 426.558C54.0895 427.296 52.8245 429.017 52.4251 429.427C52.9577 429.755 54.8219 430.985 55.5542 430.739C56.1534 430.575 56.1534 429.263 56.8858 429.181C56.686 429.919 56.5529 430.657 56.3531 431.395C57.7513 431.641 58.9496 430.493 60.0815 429.591C61.1467 432.952 64.2093 431.067 65.8737 433.608C66.7392 434.92 66.8058 435.986 68.4702 436.314C70.2012 436.642 71.7325 435.74 73.1972 437.461C72.7311 436.396 71.5993 435.494 72.7311 434.264C73.5301 435.658 73.9295 437.297 74.795 438.527L75.1945 436.56C77.5247 439.675 80.5207 439.675 83.5167 441.396V439.429C85.6471 443.446 85.7803 440.904 88.3768 439.265C88.1771 440.494 88.0439 441.642 87.8442 442.872C89.7083 442.708 91.4394 445.413 92.9706 443.118C93.9027 445.003 95.0345 444.102 96.4992 444.675C97.3647 445.003 97.9639 446.069 98.8294 446.397C100.094 446.971 100.427 446.971 101.626 447.463C102.691 447.873 103.29 448.774 104.555 449.02C105.37 449.17 106.198 449.198 107.018 449.102C107.351 449.102 107.218 448.2 107.951 448.446C109.016 448.774 109.815 450.414 110.614 451.316C111.812 447.709 115.074 452.545 116.672 453.201C116.805 452.299 116.805 451.152 117.338 450.414C118.004 452.135 118.203 453.611 119.535 454.677C120.401 455.304 121.346 455.747 122.331 455.988C122.864 456.152 123.929 455.988 124.262 456.152C124.861 456.48 125.061 457.464 125.66 457.546C125.993 457.628 126.526 456.48 126.792 456.562C127.99 456.972 128.723 458.776 129.921 459.759C133.583 462.711 138.243 462.957 142.304 463.612C143.303 463.776 143.503 463.448 144.302 464.186C144.768 464.596 144.568 465.826 145.101 466.154C147.165 467.465 147.165 464.678 147.631 463.039C148.296 464.186 148.429 465.58 149.362 466.482C149.873 466.468 150.384 466.495 150.893 466.564C151.162 466.966 151.345 467.445 151.425 467.957C152.69 469.023 154.089 468.613 155.354 469.433C155.753 469.679 156.485 471.236 157.018 471.646C158.068 472.404 159.217 472.931 160.413 473.204C162.61 473.942 165.806 472.958 167.138 475.827C168.869 473.532 168.203 476.237 169.401 476.893C170.134 477.221 171.132 475.909 171.931 475.991C173.329 476.237 173.862 478.123 174.261 479.434C175.127 479.188 174.528 476.237 174.528 475.581C175.593 475.417 175.793 478.86 175.992 479.598C177.657 478.615 174.927 475.499 176.725 474.516C176.592 477.139 178.256 479.352 175.194 479.68C175.593 481.238 185.446 483.041 186.112 481.648C186.245 484.271 187.643 481.812 188.176 480.91C188.243 482.386 187.843 484.599 189.175 485.255C190.107 485.747 192.237 484.517 192.57 483.369C192.97 485.091 193.702 485.009 194.568 486.157C195.167 486.894 195.566 488.206 196.165 488.862C197.297 490.01 199.494 489.846 200.826 489.6C203.489 489.108 203.156 488.452 204.088 491.813C204.288 490.501 204.954 487.878 206.152 489.846C206.884 491.075 205.286 493.862 204.887 495.01C205.879 494.23 206.955 493.623 208.083 493.207C208.194 493.804 208.171 494.428 208.016 495.01C208.615 495.37 209.194 495.781 209.747 496.24C209.782 495.38 209.894 494.528 210.08 493.699C211.678 494.928 210.546 497.306 212.011 498.535C212.41 498.863 213.276 498.453 213.675 498.699C214.474 499.027 215.14 499.929 215.806 500.503C215.273 499.601 215.34 498.043 215.34 496.978C215.673 497.224 215.939 498.125 216.272 498.207C216.405 498.207 217.803 498.453 217.803 498.453C219.268 499.683 218.935 499.847 217.736 501.405C218.202 502.306 220.067 500.749 220.533 500.503C220.666 500.831 220.666 502.06 220.866 502.306C221.005 502.647 221.117 503.004 221.198 503.372C221.363 503.205 221.558 503.089 221.766 503.032C221.974 502.975 222.19 502.979 222.397 503.044C222.663 503.126 224.794 504.192 224.927 503.864C224.473 503.673 224.046 503.397 223.662 503.044C224.86 501.732 225.659 500.995 226.791 502.962C226.924 503.208 226.458 504.11 226.591 504.438C227.124 505.667 228.256 506.569 228.988 507.553C229.321 506.241 228.589 502.88 230.32 502.962C231.718 503.044 232.716 507.143 232.25 508.455C232.783 507.717 236.045 506.979 236.644 507.225C238.375 507.881 237.909 509.848 240.04 506.979C241.505 508.209 240.24 508.701 240.506 510.176C240.692 510.225 240.885 510.221 241.069 510.164C241.254 510.107 241.426 509.999 241.571 509.848C241.305 516.243 245.166 511.324 247.696 512.308C248.695 512.718 248.961 514.029 249.96 514.439C250.492 514.685 251.158 514.111 251.691 514.275C252.157 514.193 252.556 514.111 252.956 514.029C253.488 513.701 253.755 514.029 253.688 515.177C254.554 515.751 254.221 515.915 255.286 516.079C255.952 516.161 256.551 515.341 257.283 515.423C258.548 515.669 258.415 516.898 259.214 517.554C259.966 518.06 260.843 518.205 261.677 517.964C262.143 517.882 263.475 517.144 263.608 517.144C264.607 517.144 264.074 516.898 265.206 517.882C265.898 518.656 266.715 519.243 267.603 519.604C268.868 520.014 271.198 520.915 271.997 519.85C273.195 521.981 274.061 520.424 275.592 520.588C276.391 520.669 276.524 521.079 277.19 521.161C278.322 521.407 279.72 521.161 280.985 521.653C282.916 522.391 283.115 522.801 285.046 522.883C285.379 522.719 285.778 522.555 286.111 522.391C286.227 523.076 286.505 523.704 286.91 524.195C287.975 524.441 288.708 523.785 289.64 523.047C290.306 525.588 292.503 525.834 294.367 526.162C297.363 526.736 300.226 526.982 303.155 528.211C305.622 529.23 308.045 530.407 310.412 531.737C312.476 532.884 314.407 534.606 316.803 533.786C322.13 531.983 327.256 525.26 331.65 521.407C336.91 516.817 342.569 513.127 348.028 509.029C369.865 492.715 392.968 478.942 414.539 461.973C426.323 452.709 437.242 441.806 449.825 434.264C448.027 443.446 444.965 452.709 445.497 462.301C445.697 466.154 446.629 470.745 449.092 473.45C452.088 476.811 455.417 474.68 458.347 472.302C464.538 467.22 468.6 459.759 473.193 452.791C478.653 444.511 482.847 435.658 486.908 426.23C487.84 427.87 487.108 430.657 487.175 432.543C487.204 434.888 487.683 437.191 488.573 439.265C490.836 444.675 495.164 445.987 499.092 442.298C506.615 435.166 511.009 422.459 515.07 412.294C517.401 417.54 520.663 424.263 526.189 420.492C530.783 417.377 533.446 410.408 534.844 404.506C539.305 386.799 538.04 369.255 538.639 351.63Z" fill="black"/>
<path fill-rule="evenodd" clip-rule="evenodd" d="M531.715 248.255C531.182 246.698 530.982 246.944 531.914 245.468C532.713 246.37 532.114 247.108 531.715 248.255ZM554.817 342.613C553.352 337.448 554.284 331.873 553.352 326.627C552.953 324.249 552.287 321.872 552.087 319.413C551.954 318.347 551.222 313.428 551.754 312.608C550.09 311.379 550.09 310.477 549.691 308.018C550.29 307.28 550.223 306.624 549.491 306.05C549.039 305.303 548.55 304.591 548.026 303.919C550.157 305.148 548.892 301.951 548.692 300.066C548.573 298.569 548.35 297.088 548.026 295.639C547.56 293.917 546.428 293.016 548.692 293.016C547.96 291.95 546.828 290.884 546.428 289.572C545.896 287.687 546.761 285.31 545.696 283.67C545.097 282.768 541.901 282.44 542.5 280.391C542.767 279.407 544.031 280.145 544.431 279.407C545.962 276.62 541.368 275.472 541.169 274.324C540.902 272.767 542.567 272.439 542.633 271.045C542.7 269.652 540.969 267.356 540.503 266.127C539.837 266.291 539.171 267.52 538.439 266.946C538.306 266.864 538.506 262.028 538.372 261.372C538.239 260.716 537.906 259.076 537.773 258.749C537.307 257.519 535.976 256.945 535.709 255.469C535.576 254.568 538.372 253.256 535.177 253.256C536.309 250.797 534.245 249.321 533.446 247.19C532.447 244.484 531.914 241.533 530.916 238.828C529.959 236.184 528.799 233.659 527.454 231.286C526.189 229.154 525.656 227.105 524.591 224.891C524.391 224.727 524.192 224.482 523.992 224.318C523.126 224.482 522.86 223.99 523.193 222.924C522.527 221.776 522.061 220.465 521.462 219.235C520.796 217.841 519.931 216.612 519.198 215.218C518.266 213.332 518 211.283 517.001 209.397C515.736 207.102 514.338 205.135 513.14 202.757C511.675 199.806 510.077 197.92 508.213 195.625C507.347 194.559 507.214 191.772 506.149 190.215C504.951 188.493 503.819 188.083 503.02 185.87C501.955 183 500.423 181.607 498.892 179.147C497.627 177.098 497.028 174.721 495.63 172.753C494.431 171.032 493.1 169.474 491.835 167.834C490.237 165.785 489.039 163.326 487.441 161.358C487.707 161.604 485.976 159.964 486.109 160.046C485.663 159.836 485.189 159.725 484.711 159.718C482.181 157.915 479.052 151.275 475.324 154.8C473.326 156.685 474.325 160.046 475.657 161.85C476.256 162.67 479.318 166.523 479.984 164.883C480.717 166.113 482.914 172.179 484.778 170.458C484.578 172.507 485.577 171.851 486.242 173.245C486.642 174.147 486.442 174.639 486.775 176.032C487.641 179.967 490.836 183.902 492.567 187.345C496.895 195.953 501.622 204.151 505.883 212.759C510.011 220.956 514.604 228.744 518.532 237.106C522.993 246.616 528.586 255.551 531.981 265.717C532.114 266.045 533.046 266.619 533.246 267.11C533.645 268.012 533.579 269.57 533.845 270.553C534.806 274.082 536.174 277.423 537.906 280.473C539.371 283.014 539.504 286.539 540.503 289.491C541.901 293.753 543.432 297.934 544.83 302.115C546.839 308.605 548.55 315.228 549.957 321.954C550.939 326.387 551.629 330.911 552.021 335.48C552.287 339.743 552.354 344.17 553.619 348.187C554.418 346.794 555.416 344.662 554.817 342.613Z" fill="black"/>
<path fill-rule="evenodd" clip-rule="evenodd" d="M62.7446 433.69C61.2134 433.28 59.7487 432.789 59.4158 430.575C59.216 431.641 58.9497 432.625 58.75 433.69C60.6142 434.182 62.5449 434.756 64.4091 435.248C64.2724 434.827 64.0453 434.46 63.7521 434.185C63.459 433.911 63.1107 433.74 62.7446 433.69Z" fill="black"/>
<path fill-rule="evenodd" clip-rule="evenodd" d="M66.8721 74.9523C66.9873 74.3366 67.1432 73.7334 67.3382 73.1488C67.4713 73.7227 68.0705 74.9523 67.7376 75.5262C67.2716 76.182 66.8055 75.8541 66.8721 74.9523ZM74.4619 57.245C74.9945 57.4909 76.0598 57.5729 76.7256 57.8188C75.0611 59.5404 74.7948 59.0485 72.6643 58.8026C72.5978 57.081 73.1304 56.5072 74.4619 57.245ZM60.281 100.612H60.9467C60.9578 99.8456 60.9356 99.0794 60.8802 98.3162C63.0772 98.8901 61.8788 94.1353 61.1465 93.1516C63.3435 93.2336 64.4088 84.7898 65.0745 83.1502C65.6737 81.6746 66.4061 81.1007 66.8055 79.3792C67.1728 77.8591 67.6404 76.3786 68.2037 74.9523C69.4686 71.5912 71.1996 68.558 70.8668 64.6231C71.932 67.5743 72.9306 64.6231 73.5964 63.2294C74.7282 60.934 77.4579 58.0648 77.7242 55.3595C77.9905 52.9821 76.5258 52.9001 77.3913 50.6867C78.2568 48.4733 78.9226 48.7192 80.4539 47.9814C81.4525 47.4895 81.6523 48.0634 82.318 46.5058C82.7841 45.5221 82.5844 44.7843 83.1835 43.9645C83.4122 44.1816 83.6937 44.2972 83.9825 44.2924C84.452 43.548 84.7715 42.677 84.9146 41.751C85.2221 40.4906 85.6003 39.258 86.0464 38.062C86.579 36.9143 87.5776 33.7991 88.1103 33.3073C88.6429 32.7334 91.772 32.9793 91.772 33.0613C93.037 31.0938 90.7068 29.0444 93.9691 29.5362C93.3033 28.0606 95.5669 26.1751 96.2327 25.3553C97.8971 23.3059 98.0303 22.3221 98.3632 19.7808C98.5629 18.4691 97.3645 18.6331 98.9624 18.3052C99.6281 18.1412 100.227 19.2069 100.693 19.043C102.757 18.3872 100.627 18.5511 101.159 17.4854C101.359 17.1575 102.225 15.8458 102.225 15.8458C102.283 15.3278 102.418 14.8275 102.624 14.3702C103.007 14.3353 103.386 14.2529 103.756 14.1243C103.956 13.6324 104.089 13.1405 104.289 12.6487C105.753 11.1731 107.95 10.4352 108.949 8.79567C109.615 7.72995 109.415 6.66423 110.28 5.59851C111.079 4.61477 112.145 5.35258 112.344 2.9752C112.544 0.0239706 110.014 -1.28769 108.949 1.66354C106.086 -2.59934 94.2354 13.1405 92.9038 15.19C86.9784 24.1257 81.1197 33.3073 76.2595 43.2267C71.5296 52.8515 67.6037 63.0415 64.5419 73.6407C63.1588 78.7319 62.0687 83.9368 61.2796 89.2166C60.9467 91.0201 58.7497 98.8901 59.6818 100.694C59.9481 100.694 60.0812 100.612 60.281 100.612Z" fill="black"/>
<path fill-rule="evenodd" clip-rule="evenodd" d="M528.519 320.068C529.518 319.249 529.518 319.249 529.718 317.691C528.386 318.019 528.386 318.019 528.519 320.068Z" fill="black"/>
<path fill-rule="evenodd" clip-rule="evenodd" d="M33.9831 425.493C34.316 426.312 34.782 426.558 35.4478 426.066C35.7141 426.64 33.1176 423.197 33.9831 425.493Z" fill="black"/>
<path fill-rule="evenodd" clip-rule="evenodd" d="M79.1891 49.457C77.5913 53.228 79.5886 50.5228 79.4554 51.7524C79.5886 50.9326 79.8549 49.7849 79.1891 49.457Z" fill="black"/>
<path fill-rule="evenodd" clip-rule="evenodd" d="M334.313 108.154C334.979 114.958 342.569 111.761 344.233 107.662C345.498 104.711 348.561 92.8236 345.232 90.3643C342.769 88.4788 342.236 96.5127 341.57 98.2342C340.572 101.185 339.706 99.136 337.443 99.8738C334.979 100.694 334.047 105.284 334.313 108.154Z" fill="black"/>
<path fill-rule="evenodd" clip-rule="evenodd" d="M326.058 95.6926C328.788 96.4304 331.384 96.0205 333.315 93.3972C334.38 91.9216 335.778 89.0524 333.847 87.6587C332.116 86.3471 330.119 89.3803 328.322 88.7245C325.858 87.9047 327.123 84.6255 326.258 82.4121C323.195 84.7075 321.464 94.463 326.058 95.6926Z" fill="black"/>
<path fill-rule="evenodd" clip-rule="evenodd" d="M328.854 112.827C326.258 112.827 326.258 116.762 327.589 118.483C328.921 120.123 332.183 121.762 333.914 120.451C337.443 117.991 330.985 113.073 328.854 112.827Z" fill="black"/>
<path fill-rule="evenodd" clip-rule="evenodd" d="M177.524 269.488C178.056 269.816 179.721 271.537 180.387 270.717L177.457 267.11C176.991 267.848 176.592 268.914 177.524 269.488Z" fill="black"/>
<path fill-rule="evenodd" clip-rule="evenodd" d="M165.274 96.6763L164.475 97.4141C165.407 98.3978 165.407 98.6438 166.339 97.742C166.032 97.3195 165.672 96.9598 165.274 96.6763Z" fill="black"/>
<path fill-rule="evenodd" clip-rule="evenodd" d="M341.504 322.036C340.971 320.888 339.972 323.02 339.307 323.348C338.241 323.921 337.309 320.888 337.642 324.495C335.179 323.102 333.714 326.299 332.116 327.938C329.853 330.316 327.123 331.545 325.658 334.825C332.715 336.874 340.372 329.414 345.631 324.495C346.497 323.675 350.758 319.658 347.895 319.249C346.697 319.167 342.369 324.003 341.504 322.036Z" fill="black"/>
<path fill-rule="evenodd" clip-rule="evenodd" d="M339.44 315.068C340.838 313.756 337.842 313.592 337.376 313.51C337.443 314.576 337.443 315.642 337.509 316.707C338.175 316.134 338.774 315.642 339.44 315.068Z" fill="black"/>
<path fill-rule="evenodd" clip-rule="evenodd" d="M334.246 319.495C334.646 319.167 335.778 318.183 335.045 317.445C334.695 317.717 334.396 318.076 334.166 318.5C333.937 318.924 333.783 319.402 333.714 319.905C333.914 319.818 334.095 319.678 334.246 319.495Z" fill="black"/>
<path fill-rule="evenodd" clip-rule="evenodd" d="M220.467 233.417C220.099 233.521 219.774 233.786 219.553 234.163C219.333 234.54 219.231 235.004 219.268 235.466C219.638 235.367 219.965 235.103 220.186 234.724C220.407 234.346 220.507 233.88 220.467 233.417Z" fill="black"/>
</g>
<defs>
<clipPath id="clip0_5291_1169">
<rect width="555" height="534" fill="white"/>
</clipPath>
</defs>
</svg>
